<?xml version="1.0" standalone="no"?><!DOCTYPE svg PUBLIC "-//W3C//DTD SVG 1.1//EN" "http://www.w3.org/Graphics/SVG/1.1/DTD/svg11.dtd"><svg t="1669014604049" class="icon" viewBox="0 0 1024 1024" version="1.1" xmlns="http://www.w3.org/2000/svg" p-id="1311" xmlns:xlink="http://www.w3.org/1999/xlink" width="200" height="200"><path d="M490.88 942.08h45.44L646.4 832h153.6l32-32v-154.88l111.36-110.08v-45.44l-109.44-110.08V223.36l-32-31.36H646.4L536.32 82.56h-45.44L384 192H225.92L192 224v155.52L83.84 489.6v45.44L192 645.12v154.88l33.92 32H384l106.88 110.08zM394.24 768H256V631.68l-7.68-22.4L151.68 512l94.72-96.64 9.6-22.4V256h138.24l23.04-8.96L512 150.4l98.56 96.64 22.4 8.96H768v136.96l10.88 22.4L876.16 512l-99.2 97.28-8.96 22.4V768H632.96l-24.32 9.6L512 874.24l-94.72-97.28-23.04-8.96z m36.48-97.28h45.44l241.28-241.28L672 384 453.76 602.88 365.44 514.56 320 560l110.72 110.72z" p-id="1312" fill="#1afa29"></path></svg>